<svg width="122" height="97" viewBox="0 0 122 97" fill="none" xmlns="http://www.w3.org/2000/svg">
<path d="M110.562 48.5H91.5V34.875C91.5 27.36 98.3387 21.25 106.75 21.25H108.656C111.825 21.25 114.375 18.9721 114.375 16.1406V5.92188C114.375 3.09043 111.825 0.8125 108.656 0.8125H106.75C85.6859 0.8125 68.625 16.0555 68.625 34.875V85.9688C68.625 91.6104 73.748 96.1875 80.0625 96.1875H110.562C116.877 96.1875 122 91.6104 122 85.9688V58.7188C122 53.0771 116.877 48.5 110.562 48.5ZM41.9375 48.5H22.875V34.875C22.875 27.36 29.7137 21.25 38.125 21.25H40.0312C43.2004 21.25 45.75 18.9721 45.75 16.1406V5.92188C45.75 3.09043 43.2004 0.8125 40.0312 0.8125H38.125C17.0609 0.8125 0 16.0555 0 34.875V85.9688C0 91.6104 5.12305 96.1875 11.4375 96.1875H41.9375C48.252 96.1875 53.375 91.6104 53.375 85.9688V58.7188C53.375 53.0771 48.252 48.5 41.9375 48.5Z" fill="#00937E"/>
</svg>
